<?xml version="1.0" encoding="UTF-8" standalone="no"?>
<svg
   xmlns:dc="http://purl.org/dc/elements/1.1/"
   xmlns:cc="http://creativecommons.org/ns#"
   xmlns:rdf="http://www.w3.org/1999/02/22-rdf-syntax-ns#"
   xmlns:svg="http://www.w3.org/2000/svg"
   xmlns="http://www.w3.org/2000/svg"
   xmlns:sodipodi="http://sodipodi.sourceforge.net/DTD/sodipodi-0.dtd"
   xmlns:inkscape="http://www.inkscape.org/namespaces/inkscape"
   version="1.0"
   width="150"
   height="97"
   viewBox="0 0 112.50001 72.750005"
   preserveAspectRatio="xMidYMid meet"
   id="svg8"
   sodipodi:docname="logo_blue.svg"
   inkscape:version="0.92.2 (5c3e80d, 2017-08-06)">
  <metadata
     id="metadata14">
    <rdf:RDF>
      <cc:Work
         rdf:about="">
        <dc:format>image/svg+xml</dc:format>
        <dc:type
           rdf:resource="http://purl.org/dc/dcmitype/StillImage" />
        <dc:title></dc:title>
      </cc:Work>
    </rdf:RDF>
  </metadata>
  <defs
     id="defs12" />
  <sodipodi:namedview
     pagecolor="#ffffff"
     bordercolor="#666666"
     borderopacity="1"
     objecttolerance="10"
     gridtolerance="10"
     guidetolerance="10"
     inkscape:pageopacity="0"
     inkscape:pageshadow="2"
     inkscape:window-width="1920"
     inkscape:window-height="986"
     id="namedview10"
     showgrid="false"
     inkscape:zoom="0.21480583"
     inkscape:cx="-585.17513"
     inkscape:cy="549.33334"
     inkscape:window-x="-11"
     inkscape:window-y="-11"
     inkscape:window-maximized="1"
     inkscape:current-layer="svg8"
     units="px" />
  <path
     style="fill:#264e7f;fill-opacity:0.94117647;stroke:none;stroke-width:0.00878906"
     inkscape:connector-curvature="0"
     id="path2"
     d="M 39.549899,0.16302531 C 32.518654,0.61126531 27.456157,1.6044303 22.103622,3.5819663 10.748161,7.7831363 2.9346894,15.095631 0.75500342,23.577071 c -1.67870983,6.565423 0.0966796,13.253893 5.05370728,19.028303 2.012694,2.33789 4.9570283,4.81641 7.8398383,6.58301 l 0.685547,0.42187 -0.237305,0.41309 c -0.46582,0.81738 -1.705077,2.61914 -2.346678,3.41894 -2.2675762,2.82129 -4.9833948,5.43164 -9.4921809,9.11425 -1.27441322,1.0459 -1.99511586,1.69629 -2.11816265,1.91602 -0.18457019,0.32519 -0.18457019,0.33398 -0.0175781,0.45703 0.24609358,0.18457 1.37988185,0.16699 2.55761545,-0.0351 6.345699,-1.09864 14.5546772,-4.28027 23.3085782,-9.03515 l 1.608397,-0.87012 1.248046,0.28125 c 2.548826,0.5625 4.84277,0.92285 7.892573,1.23926 1.230468,0.12304 2.337889,0.1582 5.49316,0.1582 4.034177,0 4.983395,-0.0527 7.778316,-0.39551 13.30663,-1.67871 24.468731,-7.41796 30.357401,-15.62694 2.012695,-2.79492 3.24316,-5.66015 3.840815,-8.87695 0.22852,-1.21289 0.325195,-4.209953 0.175785,-5.440423 -0.76465,-6.3457 -4.429685,-12.1289 -10.64355,-16.7783097 -6.855465,-5.132805 -15.767566,-8.261711 -26.235333,-9.21972099 -1.388671,-0.131835 -6.80273,-0.24609 -7.954096,-0.16699 z" />
  <path
     style="fill:#254e7e;fill-opacity:0.94117647;stroke:none;stroke-width:0.00878906"
     inkscape:connector-curvature="0"
     id="path4"
     d="m 88.821348,30.889564 c -0.6416,5.24707 -2.50488,9.60644 -5.95898,13.93945 -0.99316,1.23925 -3.374995,3.66503 -4.596675,4.68456 -4.412105,3.69141 -9.58886,6.49512 -15.670886,8.5166 -0.97559,0.32519 -1.80176,0.60644 -1.828125,0.63281 -0.05274,0.0615 1.74023,1.65234 2.469725,2.17969 2.540035,1.86328 5.317381,3.26074 8.507806,4.29785 7.127925,2.31152 15.591785,2.43456 22.790025,0.33398 l 0.71191,-0.21094 1.41504,0.86133 c 3.120115,1.90722 6.424802,3.60351 9.070302,4.66699 1.88965,0.76465 4.68457,1.57324 5.85352,1.70508 0.55371,0.0527 0.91406,-0.0439 0.91406,-0.25489 0,-0.21093 -0.4043,-0.65918 -1.06348,-1.21289 -1.98633,-1.64355 -2.7334,-2.32031 -3.87597,-3.49804 -1.44141,-1.48535 -2.26758,-2.57519 -2.88281,-3.83203 -0.4043,-0.82617 -0.79102,-2.03027 -0.79102,-2.46972 0,-0.13184 0.22852,-0.36915 0.81738,-0.83497 0.43946,-0.35156 1.26563,-1.09863 1.81934,-1.65234 3.75293,-3.76171 5.28222,-8.2705 4.35058,-12.78807 -0.97558,-4.70215 -4.70214,-9.00879 -10.37108,-11.9707 -3.225587,-1.6875 -7.259767,-2.94433 -11.214842,-3.49804 l -0.413085,-0.0615 z" />
</svg>
