<?xml version="1.0" encoding="UTF-8" standalone="no"?>
<svg
   xmlns:dc="http://purl.org/dc/elements/1.1/"
   xmlns:cc="http://creativecommons.org/ns#"
   xmlns:rdf="http://www.w3.org/1999/02/22-rdf-syntax-ns#"
   xmlns:svg="http://www.w3.org/2000/svg"
   xmlns="http://www.w3.org/2000/svg"
   xmlns:sodipodi="http://sodipodi.sourceforge.net/DTD/sodipodi-0.dtd"
   xmlns:inkscape="http://www.inkscape.org/namespaces/inkscape"
   version="1.0"
   width="1280.000000pt"
   height="824.000000pt"
   viewBox="0 0 1280.000000 824.000000"
   preserveAspectRatio="xMidYMid meet"
   id="svg8"
   sodipodi:docname="logo.svg"
   inkscape:version="0.92.2 (5c3e80d, 2017-08-06)">
  <metadata
     id="metadata14">
    <rdf:RDF>
      <cc:Work
         rdf:about="">
        <dc:format>image/svg+xml</dc:format>
        <dc:type
           rdf:resource="http://purl.org/dc/dcmitype/StillImage" />
      </cc:Work>
    </rdf:RDF>
  </metadata>
  <defs
     id="defs12" />
  <sodipodi:namedview
     pagecolor="#ffffff"
     bordercolor="#666666"
     borderopacity="1"
     objecttolerance="10"
     gridtolerance="10"
     guidetolerance="10"
     inkscape:pageopacity="0"
     inkscape:pageshadow="2"
     inkscape:window-width="1920"
     inkscape:window-height="986"
     id="namedview10"
     showgrid="false"
     inkscape:zoom="0.21480583"
     inkscape:cx="853.33333"
     inkscape:cy="549.33333"
     inkscape:window-x="-11"
     inkscape:window-y="-11"
     inkscape:window-maximized="1"
     inkscape:current-layer="svg8" />
  <path
     style="fill:#faf9f0;stroke:none;stroke-width:0.1;fill-opacity:1"
     inkscape:connector-curvature="0"
     id="path2"
     d="M 450,0.6 C 370,5.7 312.4,17 251.5,39.5 122.3,87.3 33.4,170.5 8.6,267 c -19.1,74.7 1.1,150.8 57.5,216.5 22.9,26.6 56.4,54.8 89.2,74.9 l 7.8,4.8 -2.7,4.7 c -5.3,9.3 -19.4,29.8 -26.7,38.9 C 107.9,638.9 77,668.6 25.7,710.5 11.2,722.4 3,729.8 1.6,732.3 c -2.1,3.7 -2.1,3.8 -0.2,5.2 2.8,2.1 15.7,1.9 29.1,-0.4 72.2,-12.5 165.6,-48.7 265.2,-102.8 l 18.3,-9.9 14.2,3.2 c 29,6.4 55.1,10.5 89.8,14.1 14,1.4 26.6,1.8 62.5,1.8 45.9,0 56.7,-0.6 88.5,-4.5 151.4,-19.1 278.4,-84.4 345.4,-177.8 22.9,-31.8 36.9,-64.4 43.7,-101 2.6,-13.8 3.7,-47.9 2,-61.9 C 951.4,226.1 909.7,160.3 839,107.4 761,49 659.6,13.4 540.5,2.5 524.7,1 463.1,-0.3 450,0.6 Z" />
  <path
     style="fill:#faf9f0;stroke:none;stroke-width:0.1;fill-opacity:1"
     inkscape:connector-curvature="0"
     id="path4"
     d="m 1010.6,350.2 c -7.3,59.7 -28.5,109.3 -67.8,158.6 -11.3,14.1 -38.4,41.7 -52.3,53.3 -50.2,42 -109.1,73.9 -178.3,96.9 -11.1,3.7 -20.5,6.9 -20.8,7.2 -0.6,0.7 19.8,18.8 28.1,24.8 28.9,21.2 60.5,37.1 96.8,48.9 81.1,26.3 177.4,27.7 259.3,3.8 l 8.1,-2.4 16.1,9.8 c 35.5,21.7 73.1,41 103.2,53.1 21.5,8.7 53.3,17.9 66.6,19.4 6.3,0.6 10.4,-0.5 10.4,-2.9 0,-2.4 -4.6,-7.5 -12.1,-13.8 -22.6,-18.7 -31.1,-26.4 -44.1,-39.8 -16.4,-16.9 -25.8,-29.3 -32.8,-43.6 -4.6,-9.4 -9,-23.1 -9,-28.1 0,-1.5 2.6,-4.2 9.3,-9.5 5,-4 14.4,-12.5 20.7,-18.8 42.7,-42.8 60.1,-94.1 49.5,-145.5 -11.1,-53.5 -53.5,-102.5 -118,-136.2 -36.7,-19.2 -82.6,-33.5 -127.6,-39.8 l -4.7,-0.7 z" />
</svg>
